<?xml version="1.0" standalone="no"?>
<!DOCTYPE svg PUBLIC "-//W3C//DTD SVG 20010904//EN"
 "http://www.w3.org/TR/2001/REC-SVG-20010904/DTD/svg10.dtd">
<svg version="1.0" xmlns="http://www.w3.org/2000/svg"
 width="300.000000pt" height="450.000000pt" viewBox="0 0 300.000000 450.000000"
 preserveAspectRatio="xMidYMid meet">
<metadata>
Created by potrace 1.10, written by Peter Selinger 2001-2011
</metadata>
<g transform="translate(0.000000,450.000000) scale(0.100000,-0.100000)"
fill="#CCD0CF" stroke="none">
<path d="M1510 3941 c11 -8 -3 -9 -50 -5 -76 7 -220 -15 -306 -47 -49 -19 -55
-23 -41 -34 14 -10 11 -14 -26 -25 -53 -16 -127 -53 -194 -97 -58 -38 -68 -57
-25 -47 26 6 25 5 -7 -16 -52 -33 -138 -125 -171 -183 -34 -59 -37 -72 -14
-63 10 4 13 2 8 -6 -16 -25 -13 -194 6 -321 10 -73 22 -164 25 -203 l7 -70
-34 4 c-29 3 -39 -1 -61 -27 -33 -40 -41 -83 -34 -180 15 -202 94 -366 206
-428 29 -16 37 -28 51 -79 9 -32 37 -98 62 -145 l45 -86 3 -124 c5 -193 7
-185 -42 -210 -24 -12 -70 -42 -103 -67 -33 -25 -183 -105 -335 -180 -151 -74
-321 -159 -377 -190 l-103 -55 0 -529 0 -528 1500 0 1500 0 0 540 0 540 -377
186 c-208 102 -405 205 -438 228 -33 24 -82 51 -109 61 l-48 19 4 165 5 166
36 72 c20 39 44 98 53 131 15 53 20 61 55 76 98 44 181 204 209 403 19 143
-17 239 -87 231 l-33 -4 6 41 c3 22 15 99 25 170 11 72 22 147 25 168 3 20 10
37 14 37 21 0 -9 119 -51 203 -30 61 -30 64 4 45 19 -10 18 -6 -8 28 -36 48
-51 61 -91 79 -27 12 -32 21 -36 58 -3 24 -14 56 -24 72 l-19 29 -5 -29 -6
-30 -16 30 c-18 33 -75 90 -125 124 -33 22 -47 15 -18 -9 33 -27 5 -19 -42 13
-71 48 -230 98 -328 104 -58 3 -76 2 -65 -6z m44 -572 c-8 -17 -34 -51 -56
-75 l-41 -44 30 0 c32 0 180 68 229 105 l30 23 -17 -51 c-10 -29 -16 -53 -14
-55 6 -6 81 36 129 73 l46 35 -6 -27 c-4 -16 -13 -41 -21 -56 -8 -16 -12 -31
-10 -34 7 -6 84 33 124 63 35 27 43 19 35 -33 -4 -32 9 -45 23 -23 3 6 10 10
14 10 13 0 51 -127 51 -169 0 -21 9 -60 21 -86 33 -75 57 -369 42 -517 -19
-180 -69 -410 -107 -492 -62 -134 -229 -325 -358 -410 -72 -47 -130 -60 -240
-53 -129 8 -198 43 -301 149 -220 228 -287 373 -327 698 -22 183 -8 556 23
617 9 16 20 61 25 101 6 42 23 99 40 135 28 58 30 60 31 30 1 -47 17 -49 40
-6 l21 38 -6 -42 c-8 -56 4 -56 73 3 l54 46 -7 -52 -7 -52 89 48 c49 26 99 53
111 60 33 20 35 17 13 -18 -11 -18 -20 -39 -20 -45 0 -13 85 30 195 98 33 20
61 38 63 38 1 1 -5 -13 -14 -30z m-825 -606 c28 -34 52 -106 51 -156 -1 -16
-8 -8 -27 28 -36 71 -72 107 -100 100 -27 -6 -30 10 -7 43 22 32 48 27 83 -15z
m1616 -3 c21 -40 19 -53 -5 -38 -16 10 -23 9 -46 -12 -14 -14 -39 -47 -55 -75
l-29 -50 0 35 c0 56 20 111 50 142 37 37 65 36 85 -2z m-1707 -56 c4 2 5 -18
4 -44 -2 -27 0 -56 6 -65 7 -14 11 -8 21 29 13 51 20 55 46 26 17 -19 18 -23
3 -48 -26 -46 -31 -97 -12 -139 9 -21 16 -43 15 -50 -2 -14 58 -58 67 -49 3 4
-7 18 -23 31 l-30 25 31 -15 c29 -14 32 -20 42 -97 7 -45 10 -84 7 -87 -3 -2
-29 20 -59 51 -61 63 -88 123 -117 263 -17 80 -26 211 -12 177 2 -6 8 -10 11
-8z m1702 -200 c-27 -113 -72 -204 -126 -254 -55 -50 -67 -51 -59 -2 18 105
39 145 77 155 19 5 17 1 -12 -23 -40 -34 -30 -39 18 -10 19 12 32 26 29 33 -3
7 1 24 9 38 18 33 17 90 -2 138 -12 30 -13 44 -4 60 17 33 38 25 46 -16 4 -21
9 -42 12 -47 9 -16 22 20 24 69 l2 50 3 -52 c2 -30 -5 -88 -17 -139z m-1550
-21 c0 -69 -30 -50 -44 28 -8 43 1 55 26 32 12 -11 18 -30 18 -60z m1450 28
c0 -24 -8 -48 -20 -62 l-19 -24 -1 48 c0 44 13 76 33 77 4 0 7 -18 7 -39z
m-220 -1086 l14 -30 6 40 c5 39 6 39 18 17 45 -80 -91 -274 -241 -346 -111
-53 -185 -69 -317 -70 -135 0 -232 23 -345 82 -80 41 -172 128 -200 187 -26
56 -31 125 -10 150 16 19 16 18 10 -23 -3 -28 -2 -41 4 -37 24 14 35 97 35
267 l1 177 25 -31 c153 -196 257 -270 403 -289 159 -21 270 19 402 143 44 42
100 101 125 132 l45 56 6 -197 c4 -136 10 -207 19 -228z"/>
<path d="M1000 3010 c-39 -17 -61 -41 -86 -95 -33 -69 -31 -81 9 -51 51 39
112 49 250 43 67 -3 139 -9 160 -12 34 -5 37 -3 37 17 0 22 -20 64 -20 44 0
-6 -6 -3 -12 6 -25 30 -100 50 -208 54 -61 2 -115 0 -130 -6z"/>
<path d="M1751 3010 c-24 -5 -49 -15 -57 -21 -8 -6 -14 -8 -14 -3 -1 5 -9 -1
-19 -14 -13 -15 -21 -18 -24 -10 -2 7 -7 -2 -11 -19 -10 -43 -3 -52 36 -47 18
2 83 7 144 10 131 8 195 -4 254 -47 l40 -29 -19 51 c-42 109 -74 131 -201 135
-47 2 -105 -1 -129 -6z"/>
<path d="M1045 2826 c-27 -13 -59 -33 -70 -46 -19 -22 -18 -21 20 3 111 73
227 76 299 9 25 -23 27 -24 17 -5 -6 12 -23 31 -37 42 -40 31 -160 30 -229 -3z"/>
<path d="M1720 2834 c-14 -9 -34 -28 -45 -42 -17 -24 -15 -23 21 6 72 58 176
53 279 -14 l40 -25 -37 34 c-21 18 -55 39 -76 45 -56 17 -152 15 -182 -4z"/>
<path d="M1077 2807 c-30 -10 -142 -87 -134 -93 1 -1 23 -4 50 -6 44 -5 47 -4
47 18 0 13 8 28 19 33 16 9 20 5 30 -29 6 -22 20 -44 31 -50 42 -23 110 15
110 62 0 10 5 18 10 18 13 0 50 -37 50 -50 0 -5 7 -10 15 -10 20 0 19 4 -10
50 -14 22 -38 46 -54 55 -35 18 -110 18 -164 2z m103 -47 c0 -5 -7 -10 -15
-10 -8 0 -15 5 -15 10 0 6 7 10 15 10 8 0 15 -4 15 -10z"/>
<path d="M1745 2806 c-17 -7 -43 -32 -58 -54 -31 -48 -32 -52 -12 -52 8 0 15
5 15 10 0 6 9 19 20 30 26 26 40 25 40 -1 0 -37 18 -57 60 -64 35 -6 43 -4 60
17 11 12 19 36 20 52 0 27 1 28 23 14 12 -9 23 -25 25 -37 3 -16 10 -21 32
-21 60 0 61 9 10 55 -67 59 -166 81 -235 51z m76 -59 c-13 -13 -26 -3 -16 12
3 6 11 8 17 5 6 -4 6 -10 -1 -17z"/>
<path d="M1281 2424 c-37 -47 -18 -134 29 -134 10 0 25 -7 33 -15 28 -28 107
-47 165 -41 63 7 80 15 61 28 -9 6 -5 7 12 2 15 -3 30 -1 33 5 4 6 16 11 27
11 11 0 31 11 44 25 34 33 33 84 0 122 l-25 28 15 -37 c8 -21 15 -46 15 -57 0
-29 -28 -52 -55 -45 -14 3 -41 -4 -73 -20 -64 -32 -96 -33 -147 -1 -22 13 -56
25 -75 25 -60 0 -77 39 -45 100 19 37 13 38 -14 4z"/>
<path d="M1083 2235 c-20 -14 -52 -82 -33 -70 6 4 10 12 10 20 0 7 14 25 31
39 33 28 27 36 -8 11z"/>
<path d="M1886 2215 c16 -22 29 -42 31 -44 2 -2 3 1 3 7 0 7 -14 26 -31 44
l-31 33 28 -40z"/>
<path d="M1120 2142 c0 -20 116 -115 176 -144 168 -79 314 -56 488 78 74 58
89 82 38 63 -31 -12 -219 -29 -342 -31 -82 -1 -306 23 -342 37 -10 4 -18 3
-18 -3z m177 -42 c13 0 22 -3 20 -7 -8 -14 174 -15 296 -2 64 7 120 10 122 7
22 -22 -56 -77 -146 -104 -63 -19 -220 -16 -227 4 -2 7 -8 10 -12 7 -24 -15
-140 62 -140 92 0 12 7 14 31 9 17 -3 42 -6 56 -6z m196 -7 c-7 -2 -19 -2 -25
0 -7 3 -2 5 12 5 14 0 19 -2 13 -5z"/>
<path d="M1330 1868 c0 -37 206 -54 273 -22 53 25 46 33 -15 18 -29 -8 -75
-14 -103 -14 -28 0 -74 6 -103 14 -29 7 -52 9 -52 4z"/>
</g>
</svg>
